<svg xmlns="http://www.w3.org/2000/svg" id="Group_175" data-name="Group 175" width="15.916" height="15.916" viewBox="0 0 15.916 15.916">
    <path id="Path_4" data-name="Path 4" d="M1108.715,507.945h-7.131a4.4,4.4,0,0,0-4.392,4.392v7.132a4.4,4.4,0,0,0,4.392,4.392h7.131a4.4,4.4,0,0,0,4.392-4.392v-7.132a4.4,4.4,0,0,0-4.392-4.392Zm2.98,11.524a2.983,2.983,0,0,1-2.98,2.98h-7.131a2.983,2.983,0,0,1-2.98-2.98v-7.132a2.983,2.983,0,0,1,2.98-2.98h7.131a2.983,2.983,0,0,1,2.98,2.98Zm0,0" transform="translate(-1097.191 -507.945)" fill="#fff" />
    <path id="Path_5" data-name="Path 5" d="M1112.5,519.157a4.1,4.1,0,1,0,4.1,4.1,4.106,4.106,0,0,0-4.1-4.1Zm0,6.79a2.689,2.689,0,1,1,2.689-2.689,2.692,2.692,0,0,1-2.689,2.689Zm0,0" transform="translate(-1104.545 -515.3)" fill="#fff" />
    <path id="Path_6" data-name="Path 6" d="M1130.77,515.676a1.035,1.035,0,1,0,.732.3,1.039,1.039,0,0,0-.732-.3Zm0,0" transform="translate(-1118.539 -513.016)" fill="#fff" />
</svg>