<svg xmlns="http://www.w3.org/2000/svg" width="16.789" height="16.043" viewBox="0 0 16.789 16.043">
  <g id="Group_1220" data-name="Group 1220" transform="translate(-1170.58 -507.806)">
    <path id="Path_179" data-name="Path 179" d="M1187.369,517.641v6.208h-3.6v-5.792c0-1.455-.52-2.447-1.822-2.447a1.968,1.968,0,0,0-1.846,1.316,2.47,2.47,0,0,0-.119.877v6.046h-3.6s.048-9.809,0-10.825h3.6v1.534c-.007.012-.017.024-.023.035h.023v-.035a3.574,3.574,0,0,1,3.243-1.788c2.369,0,4.144,1.547,4.144,4.872Zm-14.753-9.835a1.875,1.875,0,1,0-.047,3.741h.024a1.876,1.876,0,1,0,.023-3.741Zm-1.822,16.043h3.6V513.024h-3.6Zm0,0" transform="translate(0 0)" fill="#fff"/>
  </g>
</svg>