<svg xmlns="http://www.w3.org/2000/svg" id="Group_176" data-name="Group 176" width="19.292" height="15.671" viewBox="0 0 19.292 15.671">
  <path id="Path_7" data-name="Path 7" d="M1034.131,510.155a7.912,7.912,0,0,1-2.273.625,3.986,3.986,0,0,0,1.742-2.191,7.891,7.891,0,0,1-2.52.96,3.956,3.956,0,0,0-6.841,2.708,4.116,4.116,0,0,0,.1.9,11.236,11.236,0,0,1-8.159-4.134,3.958,3.958,0,0,0,1.224,5.281,3.9,3.9,0,0,1-1.789-.494v.048a3.968,3.968,0,0,0,3.172,3.885,4.081,4.081,0,0,1-1.041.134,4,4,0,0,1-.748-.069,3.972,3.972,0,0,0,3.7,2.749,7.955,7.955,0,0,1-4.916,1.689,8.471,8.471,0,0,1-.942-.053,11.256,11.256,0,0,0,17.326-9.478l-.012-.512a7.98,7.98,0,0,0,1.979-2.05Zm0,0" transform="translate(-1014.839 -508.301)" fill="#fff"/>
</svg>