<svg xmlns="http://www.w3.org/2000/svg" width="162.624" height="164.208" viewBox="0 0 162.624 164.208">
  <g id="hive__impact_black" transform="translate(0.5 0.578)">
    <g id="Group_1033" data-name="Group 1033">
      <g id="Group_1030" data-name="Group 1030" transform="translate(123.579 101.784)">
        <path id="Path_196" data-name="Path 196" d="M471.365,447.38l-.525-.908,36.987-21.4-.262-37.265,1.05-.008.268,37.876Z" transform="translate(-470.84 -387.8)" fill="#fff" stroke="#fff" stroke-width="1"/>
      </g>
      <g id="Group_1031" data-name="Group 1031" transform="translate(43.312)">
        <path id="Path_197" data-name="Path 197" d="M165.545,22.611l-.525-.908L202.537,0l32.7,19.113-.53.906-32.173-18.8Z" transform="translate(-165.02)" fill="#fff" stroke="#fff" stroke-width="1"/>
      </g>
      <g id="Group_1032" data-name="Group 1032" transform="translate(0 92.12)">
        <path id="Path_198" data-name="Path 198" d="M39.979,421.806.042,398.793,0,350.98H1.05l.039,47.207L40.5,420.9Z" transform="translate(0 -350.98)" fill="#fff" stroke="#fff" stroke-width="1"/>
      </g>
    </g>
    <g id="Group_1037" data-name="Group 1037" transform="translate(0.304 0.607)">
      <g id="Group_1034" data-name="Group 1034" transform="translate(0 92.211)">
        <rect id="Rectangle_358" data-name="Rectangle 358" width="92.577" height="1.05" transform="translate(0 46.353) rotate(-30.047)" fill="#fff" stroke="#fff" stroke-width="1"/>
      </g>
      <g id="Group_1035" data-name="Group 1035" transform="translate(80.135 92.206)">
        <rect id="Rectangle_359" data-name="Rectangle 359" width="1.05" height="92.666" transform="translate(0 0.911) rotate(-60.179)" fill="#fff" stroke="#fff" stroke-width="1"/>
      </g>
      <g id="Group_1036" data-name="Group 1036" transform="translate(79.866)">
        <rect id="Rectangle_360" data-name="Rectangle 360" width="92.666" height="1.05" transform="matrix(0.001, -1, 1, 0.001, 0, 92.666)" fill="#fff" stroke="#fff" stroke-width="1"/>
      </g>
    </g>
  </g>
</svg>
