<svg xmlns="http://www.w3.org/2000/svg" width="23.636" height="16.883" viewBox="0 0 23.636 16.883">
  <g id="noun-email-4619798" transform="translate(-104.996 -105.002)">
    <path id="Path_1484" data-name="Path 1484" d="M148.426,297.792l-1.333,1.24a2.521,2.521,0,0,1-3.426,0l-1.334-1.248-7.326,7.331a2.491,2.491,0,0,0,1.085.253h18.571a2.492,2.492,0,0,0,1.085-.253Z" transform="translate(-28.564 -183.483)" fill="#fff"/>
    <path id="Path_1485" data-name="Path 1485" d="M446.332,135.315a2.5,2.5,0,0,0-.275-1.124l-7.26,6.753,7.281,7.274a2.491,2.491,0,0,0,.253-1.085Z" transform="translate(-317.7 -27.781)" fill="#fff"/>
    <path id="Path_1486" data-name="Path 1486" d="M146.231,114.314a.839.839,0,0,0,1.135-.006l9.759-9.074a2.511,2.511,0,0,0-1.044-.231H137.51a2.523,2.523,0,0,0-1.013.213Z" transform="translate(-29.982 0)" fill="#fff"/>
    <path id="Path_1487" data-name="Path 1487" d="M105.289,133.51a2.5,2.5,0,0,0-.293,1.157v11.818a2.491,2.491,0,0,0,.253,1.085l7.285-7.285Z" transform="translate(0 -27.133)" fill="#fff"/>
  </g>
</svg>
