<svg id="Group_176" data-name="Group 176" xmlns="http://www.w3.org/2000/svg" width="29.06" height="23.605" viewBox="0 0 29.06 23.605">
  <path id="Path_7" data-name="Path 7" d="M1043.9,511.094a11.919,11.919,0,0,1-3.424.942,6,6,0,0,0,2.624-3.3,11.882,11.882,0,0,1-3.8,1.446,5.96,5.96,0,0,0-10.3,4.079,6.2,6.2,0,0,0,.152,1.358,16.924,16.924,0,0,1-12.29-6.227,5.961,5.961,0,0,0,1.844,7.954,5.874,5.874,0,0,1-2.695-.744v.073a5.977,5.977,0,0,0,4.778,5.853,6.148,6.148,0,0,1-1.568.2,6.019,6.019,0,0,1-1.126-.1,5.982,5.982,0,0,0,5.568,4.141,11.982,11.982,0,0,1-7.4,2.544,12.751,12.751,0,0,1-1.419-.079,16.871,16.871,0,0,0,9.142,2.677c10.96,0,16.956-9.08,16.956-16.953l-.018-.772a12.024,12.024,0,0,0,2.981-3.087Zm0,0" transform="translate(-1014.839 -508.301)" fill="#fff"/>
</svg>
