<svg id="Group_175" data-name="Group 175" xmlns="http://www.w3.org/2000/svg" width="23.974" height="23.974" viewBox="0 0 23.974 23.974">
  <path id="Path_4" data-name="Path 4" d="M1114.549,507.945h-10.742a6.623,6.623,0,0,0-6.616,6.616V525.3a6.623,6.623,0,0,0,6.616,6.616h10.742a6.624,6.624,0,0,0,6.616-6.616V514.561a6.623,6.623,0,0,0-6.616-6.616Zm4.489,17.358a4.494,4.494,0,0,1-4.489,4.489h-10.742a4.494,4.494,0,0,1-4.489-4.489V514.561a4.493,4.493,0,0,1,4.489-4.489h10.742a4.494,4.494,0,0,1,4.489,4.489Zm0,0" transform="translate(-1097.191 -507.945)" fill="#fff"/>
  <path id="Path_5" data-name="Path 5" d="M1114.579,519.157a6.177,6.177,0,1,0,6.178,6.177,6.184,6.184,0,0,0-6.178-6.177Zm0,10.227a4.05,4.05,0,1,1,4.051-4.05,4.055,4.055,0,0,1-4.051,4.05Zm0,0" transform="translate(-1102.592 -513.347)" fill="#fff"/>
  <path id="Path_6" data-name="Path 6" d="M1131.294,515.676a1.56,1.56,0,1,0,1.1.457,1.565,1.565,0,0,0-1.1-.457Zm0,0" transform="translate(-1112.87 -511.67)" fill="#fff"/>
</svg>
