<svg xmlns="http://www.w3.org/2000/svg" width="29" height="29" viewBox="0 0 29 29">
  <g id="Group_2585" data-name="Group 2585" transform="translate(19725.932 -8839)">
    <rect id="Rectangle_909" data-name="Rectangle 909" width="29" height="29" rx="6" transform="translate(-19725.932 8839)" fill="#0078ba"/>
    <g id="Group_2584" data-name="Group 2584" transform="translate(-19722.328 8843.304)">
      <path id="Path_179" data-name="Path 179" d="M1192.283,520.52v8.024h-4.652v-7.487c0-1.88-.672-3.164-2.356-3.164a2.544,2.544,0,0,0-2.387,1.7,3.192,3.192,0,0,0-.154,1.134v7.815h-4.653s.063-12.68,0-13.993h4.653v1.983c-.009.015-.022.031-.03.045h.03v-.045a4.62,4.62,0,0,1,4.193-2.312c3.062,0,5.357,2,5.357,6.3Zm-19.071-12.714a2.424,2.424,0,1,0-.061,4.836h.031a2.425,2.425,0,1,0,.03-4.836Zm-2.356,20.739h4.651V514.552h-4.651Zm0,0" transform="translate(-1170.58 -507.806)" fill="#fff"/>
    </g>
  </g>
</svg>
