<svg xmlns="http://www.w3.org/2000/svg" width="15.869" height="22.119" viewBox="0 0 15.869 22.119">
  <path id="Path_1490" data-name="Path 1490" d="M177.156,43.2c.654.952,1.038,1.525,2.168,1.059a1.434,1.434,0,0,1,1.635-.643l4.106,4.314c-.03.583-.628,1.014-1.236,1.279-1.329.422-3.027,1.174-3.952.793-3.591-1.479-11.171-14.608-10.656-18.457.133-.992,1.633-2.087,2.662-3.026a1.77,1.77,0,0,1,1.726-.43l1.683,5.714a1.433,1.433,0,0,1-1.374,1.094c-.969.746-.665,1.365-.167,2.407l3.4,5.9Z" transform="translate(-169.196 -27.988)" fill="#fff" fill-rule="evenodd"/>
</svg>
