<svg id="Group_1220" data-name="Group 1220" xmlns="http://www.w3.org/2000/svg" width="25.289" height="24.166" viewBox="0 0 25.289 24.166">
  <path id="Path_179" data-name="Path 179" d="M1195.869,522.621v9.35h-5.421v-8.724c0-2.191-.783-3.686-2.745-3.686a2.964,2.964,0,0,0-2.781,1.982,3.72,3.72,0,0,0-.18,1.321v9.106h-5.422s.073-14.776,0-16.305h5.422v2.31c-.011.018-.026.036-.035.053h.035v-.053a5.383,5.383,0,0,1,4.885-2.694c3.568,0,6.242,2.33,6.242,7.338Zm-22.222-14.815a2.825,2.825,0,1,0-.071,5.634h.036a2.826,2.826,0,1,0,.035-5.634Zm-2.745,24.166h5.419V515.666H1170.9Zm0,0" transform="translate(-1170.58 -507.806)" fill="#fff"/>
</svg>
