<svg id="thehive_logo_combined_logo_stone" xmlns="http://www.w3.org/2000/svg" width="196.479" height="31.946" viewBox="0 0 196.479 31.946">
  <g id="Group_1021" data-name="Group 1021" transform="translate(35.07)">
    <path id="Path_186" data-name="Path 186" d="M589.1,55.609V30.922h-7.3V25.9h20.366v5.022H594.8V55.609h-5.7Z" transform="translate(-581.8 -24.339)" fill="#fff"/>
    <path id="Path_187" data-name="Path 187" d="M1334.276,173.4a11.409,11.409,0,0,1-5.866-1.456,9.885,9.885,0,0,1-3.841-4.051,12.569,12.569,0,0,1-1.35-5.886,13.1,13.1,0,0,1,1.287-5.867,9.7,9.7,0,0,1,3.776-4.114,11.166,11.166,0,0,1,5.866-1.5,10.4,10.4,0,0,1,5.55,1.413,8.788,8.788,0,0,1,3.461,4.01,14.937,14.937,0,0,1,1.161,6.139c0,.479-.015.886-.042,1.224h-15.741a6.3,6.3,0,0,0,1.772,4.263,5.762,5.762,0,0,0,4.051,1.392,5.143,5.143,0,0,0,2.954-.8,4.173,4.173,0,0,0,1.646-2.195h5.191a8.576,8.576,0,0,1-3.439,5.549A10.935,10.935,0,0,1,1334.276,173.4Zm4.684-13.758a4.965,4.965,0,0,0-1.435-3.439,4.8,4.8,0,0,0-3.377-1.161,5.436,5.436,0,0,0-3.566,1.161,5.754,5.754,0,0,0-1.878,3.439Z" transform="translate(-1278.529 -141.456)" fill="#fff"/>
    <path id="Path_188" data-name="Path 188" d="M2405.28,7a3.3,3.3,0,0,1-2.448-1.034,3.358,3.358,0,0,1-1.012-2.427,3.456,3.456,0,0,1,1.012-2.511A3.3,3.3,0,0,1,2405.28,0a3.423,3.423,0,0,1,2.511,1.034,3.42,3.42,0,0,1,1.033,2.511,3.324,3.324,0,0,1-1.033,2.427A3.42,3.42,0,0,1,2405.28,7Zm-2.787,24.266V9.748h5.572V31.27h-5.572Z" transform="translate(-2292.113)" fill="#fff"/>
    <path id="Path_189" data-name="Path 189" d="M2555,183.242l-8.567-21.522h5.656l5.655,14.9,5.612-14.9h5.656l-8.567,21.522Z" transform="translate(-2428.006 -151.972)" fill="#fff"/>
    <path id="Path_190" data-name="Path 190" d="M2920.546,173.4a11.408,11.408,0,0,1-5.865-1.456,9.884,9.884,0,0,1-3.841-4.051,12.569,12.569,0,0,1-1.35-5.886,13.1,13.1,0,0,1,1.287-5.867,9.7,9.7,0,0,1,3.776-4.114,11.165,11.165,0,0,1,5.866-1.5,10.4,10.4,0,0,1,5.55,1.413,8.786,8.786,0,0,1,3.46,4.01,14.933,14.933,0,0,1,1.161,6.139c0,.479-.015.886-.042,1.224h-15.741a6.3,6.3,0,0,0,1.772,4.263,5.763,5.763,0,0,0,4.051,1.392,5.144,5.144,0,0,0,2.954-.8,4.175,4.175,0,0,0,1.646-2.195h5.19a8.577,8.577,0,0,1-3.438,5.549A10.936,10.936,0,0,1,2920.546,173.4Zm4.684-13.758a4.967,4.967,0,0,0-1.434-3.439,4.8,4.8,0,0,0-3.377-1.161,5.436,5.436,0,0,0-3.566,1.161,5.757,5.757,0,0,0-1.878,3.439Z" transform="translate(-2769.182 -141.456)" fill="#fff"/>
    <path id="Path_191" data-name="Path 191" d="M978.579,35.8a7.083,7.083,0,0,0-5.676-2.383,7.462,7.462,0,0,0-3.8.949A7.687,7.687,0,0,0,966.4,37V29.043L960.96,25.9V55.609H966.4V44.045a7.719,7.719,0,0,1,.591-3.123,4.839,4.839,0,0,1,1.646-2.088,4.159,4.159,0,0,1,2.447-.74,3.765,3.765,0,0,1,3,1.161,5.027,5.027,0,0,1,1.013,3.4V55.609h5.528V42.316A9.686,9.686,0,0,0,978.579,35.8Z" transform="translate(-938.105 -24.339)" fill="#fff"/>
    <path id="Path_192" data-name="Path 192" d="M1955.379,25.924V37.969h-14.221V29.187h0l-5.7-3.288h0V55.609h5.7V42.991h14.221V55.609h5.654V29.188Z" transform="translate(-1853.864 -24.339)" fill="#fff"/>
  </g>
  <g id="Group_1022" data-name="Group 1022" transform="translate(0 1.495)">
    <path id="Path_193" data-name="Path 193" d="M14.911,24.81A14.911,14.911,0,1,0,29.822,39.72,14.911,14.911,0,0,0,14.911,24.81Zm4.83,21.544H16.85l3.107-5.38H9.864l3.107,5.38H10.08L6.251,39.722l3.831-6.635h2.891L9.864,38.47H19.957l-3.109-5.383h2.891l3.831,6.635Z" transform="translate(0 -24.81)" fill="#fff"/>
  </g>
</svg>
