<svg xmlns="http://www.w3.org/2000/svg" width="728.5" height="894.005" viewBox="0 0 728.5 894.005">
  <path id="Subtraction_10" data-name="Subtraction 10" d="M24864.932-4236.995h-233.879c-12.971-2.967-25.949-6.461-38.576-10.386-16.246-5.053-32.412-10.972-48.049-17.593-15.531-6.57-30.914-13.978-45.723-22.02-14.672-7.969-29.18-16.782-43.119-26.193-13.852-9.358-27.4-19.489-40.262-30.109s-25.373-21.982-37.139-33.755c-11.781-11.786-23.139-24.284-33.756-37.146s-20.754-26.41-30.109-40.255c-9.387-13.9-18.2-28.406-26.2-43.125-8.061-14.84-15.469-30.221-22.02-45.716-6.633-15.675-12.549-31.841-17.586-48.049-5.1-16.369-9.432-33.233-12.889-50.125a519.333,519.333,0,0,1-7.918-51.933,527.444,527.444,0,0,1-2.707-53.472,527.442,527.442,0,0,1,2.707-53.472,519.832,519.832,0,0,1,7.918-51.927c3.457-16.894,7.793-33.758,12.889-50.124,5.037-16.206,10.953-32.372,17.586-48.049,6.5-15.386,13.9-30.767,22.02-45.716,7.961-14.664,16.775-29.173,26.2-43.125,9.354-13.846,19.482-27.392,30.109-40.262s21.975-25.354,33.756-37.141c4.762-4.768,9.77-9.583,14.887-14.313h560.43v214.052l-36.15-62.616h-101.4l109.033,188.824H24571l109.025-188.824h-101.389l-134.369,232.743,134.3,232.623h101.4L24571-4702.915h353.988L24816.02-4514.2h101.395l36.088-62.5v310.914c-15.787,6.75-32.094,12.783-48.465,17.934C24891.916-4243.731,24878.422-4240.078,24864.932-4236.995Z" transform="translate(-24225.002 5131)" fill="#1e1e1c" opacity="0.043"/>
</svg>
