<svg version="1.2" xmlns="http://www.w3.org/2000/svg" viewBox="0 0 239 36" width="239" height="36"><style>tspan{white-space:pre}.a{fill:#043c39}.b{font-size: 13px;fill: #043c39;font-weight: 500;font-family: "LibreFranklin-Medium", "Libre Franklin"}.c{font-size: 13px;fill: #ffffff;font-weight: 500;font-family: "LibreFranklin-Medium", "Libre Franklin"}.d{fill:#fff}.e{font-size: 12px;fill: #ffffff;font-weight: 300;font-family: "LibreFranklin-Light", "Libre Franklin"}.f{font-size: 12px;fill: #ffffff;font-weight: 700;font-family: "LibreFranklin-Bold", "Libre Franklin"}</style><path class="a" d="m51.6 36.1v-30.1h-8.9v-6.1h24.8v6.1h-9v30.1c0 0-6.9 0-6.9 0z"/><path class="a" d="m110.5 36.9q-0.9 0-1.8-0.1-1-0.1-1.9-0.3-0.9-0.3-1.7-0.6-0.9-0.3-1.7-0.8-0.8-0.4-1.4-1-0.7-0.5-1.3-1.1-0.6-0.7-1.1-1.4-0.5-0.7-0.9-1.4-0.4-0.9-0.7-1.7-0.3-0.9-0.6-1.8-0.2-0.9-0.3-1.8-0.1-1 0-1.9-0.1-0.9 0-1.8 0.1-1 0.3-1.9 0.2-0.9 0.5-1.7 0.3-0.9 0.7-1.7 0.4-0.8 0.9-1.5 0.5-0.7 1.1-1.4 0.5-0.6 1.2-1.2 0.7-0.5 1.4-0.9 0.8-0.5 1.7-0.9 0.9-0.3 1.8-0.5 0.9-0.3 1.8-0.4 0.9-0.1 1.9-0.1 0.8 0 1.7 0.1 0.9 0.1 1.8 0.3 0.8 0.2 1.6 0.6 0.9 0.3 1.6 0.8 0.7 0.4 1.3 0.9 0.7 0.6 1.2 1.2 0.5 0.6 1 1.3 0.4 0.7 0.7 1.4 0.4 0.9 0.7 1.8 0.2 1 0.4 1.9 0.2 0.9 0.3 1.9 0.1 1 0 1.9 0 0.9 0 1.5h-19.2q0 0.7 0.2 1.4 0.1 0.7 0.4 1.4 0.3 0.7 0.7 1.3 0.4 0.6 0.9 1.1 0.5 0.4 1.1 0.8 0.6 0.3 1.2 0.5 0.6 0.2 1.3 0.3 0.7 0.1 1.3 0.1 0.5 0 1-0.1 0.4 0 0.9-0.1 0.4-0.2 0.9-0.3 0.4-0.2 0.8-0.5 0.4-0.2 0.7-0.5 0.3-0.3 0.5-0.7 0.3-0.3 0.5-0.7 0.2-0.4 0.3-0.8h6.3q-0.1 1-0.5 2-0.4 1-0.9 1.8-0.5 0.9-1.2 1.6-0.7 0.8-1.6 1.4-0.8 0.6-1.8 1-0.9 0.5-1.9 0.7-1 0.3-2 0.5-1 0.1-2.1 0.1zm5.7-16.8q0-0.6-0.1-1.1-0.1-0.6-0.4-1.1-0.2-0.6-0.5-1.1-0.3-0.4-0.7-0.9-0.5-0.3-0.9-0.6-0.5-0.3-1.1-0.5-0.5-0.1-1-0.2-0.6-0.1-1.1-0.1-0.6 0-1.2 0.1-0.6 0.1-1.1 0.3-0.6 0.1-1.1 0.4-0.5 0.3-1 0.6-0.4 0.4-0.8 0.9-0.4 0.5-0.7 1-0.3 0.6-0.5 1.2-0.2 0.5-0.3 1.1z"/><path class="a" d="m180.4 6.5q-0.4 0-0.8 0-0.5-0.1-0.8-0.3-0.4-0.2-0.8-0.4-0.3-0.2-0.6-0.5-0.3-0.3-0.5-0.7-0.3-0.3-0.4-0.7-0.2-0.4-0.2-0.8-0.1-0.4-0.1-0.8 0-0.4 0-0.8 0.1-0.4 0.3-0.8 0.1-0.4 0.4-0.8 0.2-0.3 0.5-0.6 0.3-0.3 0.6-0.6 0.4-0.2 0.8-0.4 0.3-0.1 0.8-0.2 0.4-0.1 0.8-0.1 0.4 0 0.8 0.1 0.4 0.1 0.8 0.2 0.4 0.2 0.8 0.4 0.3 0.3 0.6 0.6 0.3 0.3 0.6 0.6 0.2 0.4 0.4 0.8 0.1 0.3 0.2 0.8 0.1 0.4 0.1 0.8 0 0.4-0.1 0.8-0.1 0.4-0.2 0.8-0.2 0.4-0.4 0.7-0.3 0.4-0.6 0.7-0.3 0.3-0.6 0.5-0.4 0.2-0.8 0.4-0.4 0.2-0.8 0.3-0.4 0-0.8 0zm-3.4 29.6v-26.2h6.8v26.2z"/><path class="a" d="m197.2 36.1l-10.4-26.2h6.9l6.8 18.1 6.9-18.1h6.9l-10.5 26.2z"/><path class="a" d="m226.9 36.9q-1 0-1.9-0.1-0.9-0.1-1.8-0.3-0.9-0.3-1.8-0.6-0.9-0.3-1.7-0.8-0.7-0.4-1.4-1-0.7-0.5-1.3-1.1-0.6-0.7-1.1-1.4-0.5-0.7-0.8-1.4-0.5-0.9-0.8-1.7-0.3-0.9-0.5-1.8-0.2-0.9-0.3-1.8-0.1-1-0.1-1.9 0-0.9 0.1-1.8 0.1-1 0.3-1.9 0.2-0.9 0.5-1.7 0.3-0.9 0.7-1.7 0.4-0.8 0.8-1.5 0.5-0.7 1.1-1.4 0.6-0.6 1.3-1.2 0.6-0.5 1.4-0.9 0.8-0.5 1.7-0.9 0.8-0.3 1.7-0.5 0.9-0.3 1.9-0.4 0.9-0.1 1.8-0.1 0.9 0 1.8 0.1 0.9 0.1 1.7 0.3 0.9 0.2 1.7 0.6 0.8 0.3 1.6 0.8 0.7 0.4 1.3 0.9 0.6 0.6 1.2 1.2 0.5 0.6 0.9 1.3 0.5 0.7 0.8 1.4 0.4 0.9 0.6 1.8 0.3 1 0.5 1.9 0.2 0.9 0.2 1.9 0.1 1 0.1 1.9 0 0.9-0.1 1.5h-19.1q0 0.7 0.2 1.4 0.1 0.7 0.4 1.4 0.3 0.7 0.6 1.3 0.4 0.6 0.9 1.1 0.6 0.4 1.1 0.8 0.6 0.3 1.2 0.5 0.7 0.2 1.3 0.3 0.7 0.1 1.4 0.1 0.4 0 0.9-0.1 0.5 0 0.9-0.1 0.5-0.2 0.9-0.3 0.5-0.2 0.9-0.5 0.3-0.2 0.6-0.5 0.3-0.3 0.6-0.7 0.3-0.3 0.4-0.7 0.2-0.4 0.4-0.8h6.3q-0.2 1-0.5 2-0.4 1-0.9 1.8-0.6 0.9-1.3 1.6-0.7 0.8-1.5 1.4-0.9 0.6-1.8 1-0.9 0.5-1.9 0.7-1 0.3-2.1 0.5-1 0.1-2 0.1zm5.7-16.8q0-0.6-0.2-1.1-0.1-0.6-0.3-1.1-0.2-0.6-0.5-1.1-0.4-0.4-0.8-0.9-0.4-0.3-0.9-0.6-0.5-0.3-1-0.5-0.5-0.1-1.1-0.2-0.5-0.1-1.1-0.1-0.6 0-1.2 0.1-0.5 0.1-1.1 0.3-0.5 0.1-1.1 0.4-0.5 0.3-0.9 0.6-0.5 0.4-0.9 0.9-0.3 0.5-0.6 1-0.3 0.6-0.5 1.2-0.2 0.5-0.3 1.1z"/><path class="a" d="m91.9 11.9q-0.6-0.7-1.4-1.3-0.8-0.5-1.7-0.9-0.9-0.4-1.9-0.5-0.9-0.2-1.9-0.2-0.6 0-1.2 0.1-0.6 0.1-1.2 0.2-0.6 0.2-1.1 0.4-0.6 0.2-1.1 0.5-0.5 0.3-1 0.6-0.4 0.4-0.8 0.8-0.5 0.4-0.8 0.9-0.4 0.4-0.7 0.9v-9.7l-6.6-3.8v36.2h6.6v-14.1q0-0.5 0-1 0.1-0.5 0.2-1 0.1-0.4 0.2-0.9 0.1-0.5 0.3-0.9 0.2-0.4 0.4-0.8 0.2-0.3 0.5-0.6 0.2-0.4 0.5-0.6 0.3-0.3 0.6-0.6 0.4-0.2 0.7-0.4 0.4-0.1 0.7-0.2 0.4-0.2 0.8-0.2 0.4-0.1 0.8-0.1 0.5 0 1 0.1 0.5 0.1 1 0.2 0.5 0.2 0.9 0.5 0.4 0.3 0.8 0.7 0.3 0.4 0.5 0.9 0.3 0.5 0.4 1 0.2 0.5 0.3 1.1 0 0.5 0 1.1v15.8h6.7v-16.2q0-5.1-2.5-8z"/><path class="a" d="m166.2-0.1v14.7h-17.3v-10.7l-6.9-4v36.2h6.9v-15.4h17.3v15.4h6.9v-32.2z"/><path class="a" d="m18.1-0.2c-7.3 0-13.9 4.4-16.7 11.2-2.8 6.8-1.3 14.6 3.9 19.8 5.2 5.2 13 6.7 19.8 3.9 6.8-2.8 11.2-9.4 11.2-16.7 0-2.4-0.5-4.8-1.4-7-0.9-2.2-2.2-4.2-3.9-5.9-1.7-1.7-3.7-3-5.9-3.9-2.2-0.9-4.6-1.4-7-1.4zm5.9 26.2h-3.5l3.8-6.5h-12.3l3.8 6.5h-3.5l-4.7-8 4.7-8.1h3.5l-3.8 6.5h12.3l-3.8-6.5h3.5l4.7 8.1z"/><text style="transform:matrix(1,0,0,1,717,23)" ><tspan x="0" y="0" class="b">What We Do
</tspan></text><text style="transform:matrix(1,0,0,1,832,23)" ><tspan x="0" y="0" class="b">Our Purpose
</tspan></text><text style="transform:matrix(1,0,0,1,602,23)" ><tspan x="0" y="0" class="b">Who We Are
</tspan></text><text style="transform:matrix(1,0,0,1,947,23)" ><tspan x="0" y="0" class="b">Case Studies
</tspan></text><text style="transform:matrix(1,0,0,1,1065,23)" ><tspan x="0" y="0" class="b">Resources
</tspan></text><path class="a" d="m1168-7h147.4l-3.8 50h-148.6z"/><text style="transform:matrix(1,0,0,1,1203,23)" ><tspan x="0" y="0" class="c">Get In Touch
</tspan></text><path fill-rule="evenodd" class="a" d="m-65-76h1443v40h-1443z"/><path class="d" d="m1-62v2.3h-1.7v2.7h1.7v8.3h3.4v-8.3h2.3c0 0 0.2-1.3 0.3-2.7h-2.6v-1.9q0-0.2 0.1-0.3 0-0.1 0.1-0.2 0.1-0.1 0.3-0.1 0.1-0.1 0.2-0.1h1.9v-2.9h-2.5c-3.6 0-3.5 2.8-3.5 3.2z"/><path class="d" d="m79.3-64.9h-7.1q-0.9 0-1.7 0.3-0.8 0.4-1.4 1-0.6 0.6-0.9 1.4-0.4 0.8-0.4 1.7v7.1q0 0.9 0.4 1.7 0.3 0.8 0.9 1.4 0.6 0.6 1.4 1 0.8 0.3 1.7 0.3h7.1q0.9 0 1.7-0.3 0.8-0.4 1.4-1 0.7-0.6 1-1.4 0.3-0.8 0.3-1.7v-7.1q0-0.9-0.3-1.7-0.3-0.8-1-1.4-0.6-0.6-1.4-1-0.8-0.3-1.7-0.3zm3 11.5q0 0.6-0.2 1.1-0.2 0.6-0.7 1-0.4 0.4-0.9 0.7-0.6 0.2-1.2 0.2h-7.1q-0.6 0-1.1-0.2-0.6-0.3-1-0.7-0.4-0.4-0.6-1-0.3-0.5-0.3-1.1v-7.1q0-0.6 0.3-1.2 0.2-0.5 0.6-0.9 0.4-0.4 1-0.7 0.5-0.2 1.1-0.2h7.1q0.6 0 1.2 0.2 0.5 0.3 0.9 0.7 0.5 0.4 0.7 0.9 0.2 0.6 0.2 1.2z"/><path class="d" d="m75.8-61.1c-1.7 0-3.2 1-3.8 2.6-0.7 1.5-0.3 3.3 0.9 4.4 1.1 1.2 2.9 1.6 4.4 0.9 1.6-0.6 2.6-2.1 2.6-3.8q0-0.8-0.3-1.5-0.4-0.8-0.9-1.4-0.6-0.5-1.4-0.8-0.7-0.4-1.5-0.4zm0 6.8c-1.1 0-2.1-0.6-2.5-1.6-0.4-1-0.2-2.2 0.6-3 0.7-0.7 1.9-1 2.9-0.5 1 0.4 1.7 1.4 1.7 2.4q0 0.6-0.2 1.1-0.3 0.5-0.6 0.8-0.4 0.4-0.9 0.6-0.5 0.2-1 0.2z"/><path class="d" d="m80-62.3c-0.4 0-0.9 0.4-1 0.9-0.1 0.5 0.2 0.9 0.7 1.1 0.4 0.2 0.9 0.1 1.2-0.3 0.3-0.5 0.2-1-0.1-1.4q-0.1 0-0.2-0.1-0.1 0-0.2-0.1-0.1 0-0.2 0-0.1-0.1-0.2-0.1z"/><path class="d" d="m47.2-62.9q-0.3 0.1-0.6 0.2-0.3 0.1-0.6 0.2-0.2 0-0.5 0.1-0.3 0-0.6 0.1 0.3-0.2 0.6-0.4 0.2-0.3 0.5-0.6 0.2-0.2 0.3-0.5 0.2-0.4 0.3-0.7-0.3 0.2-0.6 0.3-0.3 0.2-0.6 0.3-0.3 0.1-0.6 0.2-0.4 0.1-0.7 0.2c-0.5-0.6-1.2-1-2-1.2-0.8-0.2-1.6-0.1-2.3 0.2-0.8 0.3-1.4 0.8-1.9 1.4-0.4 0.7-0.6 1.5-0.6 2.3q0 0.1 0 0.2 0 0.1 0 0.2 0 0.1 0 0.2 0 0.2 0.1 0.3-1.2-0.1-2.4-0.4-1.1-0.3-2.2-0.8-1-0.6-1.9-1.3-1-0.8-1.7-1.7-0.4 0.7-0.5 1.4-0.1 0.8 0.1 1.5 0.1 0.7 0.6 1.4 0.4 0.6 1 1-0.2 0-0.4 0-0.3-0.1-0.5-0.1-0.2-0.1-0.4-0.2-0.3-0.1-0.5-0.2v0.1q0 0.6 0.3 1.3 0.2 0.6 0.6 1.2 0.5 0.5 1.1 0.9 0.5 0.3 1.2 0.4-0.1 0.1-0.2 0.1-0.2 0-0.3 0-0.1 0.1-0.3 0.1-0.1 0-0.2 0-0.1 0-0.2 0-0.1 0-0.2 0-0.1 0-0.2-0.1-0.1 0-0.2 0 0.2 0.6 0.6 1.1 0.3 0.5 0.8 0.9 0.5 0.3 1.1 0.5 0.6 0.2 1.2 0.3-0.5 0.4-1.1 0.7-0.6 0.3-1.2 0.5-0.6 0.2-1.3 0.3-0.6 0.2-1.3 0.2-0.1 0-0.2-0.1-0.1 0-0.3 0-0.1 0-0.2 0-0.1 0-0.2 0c1.7 1.1 3.6 1.7 5.6 1.8 2.1 0 4.1-0.4 5.8-1.4 1.8-1 3.3-2.4 4.3-4.1 1-1.8 1.6-3.8 1.6-5.8v-0.5q0.3-0.2 0.5-0.4 0.3-0.3 0.6-0.5 0.2-0.3 0.4-0.6 0.3-0.2 0.5-0.5z"/><path class="d" d="m124-55.3v6.2h-3.6v-5.8c0-1.5-0.5-2.5-1.8-2.5q-0.3 0-0.6 0.1-0.3 0.1-0.5 0.3-0.3 0.2-0.5 0.4-0.2 0.3-0.3 0.6 0 0.1 0 0.2 0 0.1-0.1 0.2 0 0.1 0 0.2 0 0.1 0 0.2v6.1h-3.6c0 0 0.1-9.8 0-10.8h3.6v1.5q0 0 0 0 0.3-0.4 0.6-0.8 0.4-0.3 0.8-0.6 0.4-0.2 0.9-0.3 0.5-0.1 1-0.1c2.3 0 4.1 1.5 4.1 4.9zm-14.7-9.9c-0.6 0-1.1 0.2-1.5 0.5-0.3 0.4-0.6 0.9-0.6 1.4 0 0.5 0.2 1 0.6 1.4 0.4 0.3 0.9 0.5 1.4 0.5 0.6 0 1.1-0.2 1.5-0.5 0.3-0.4 0.6-0.9 0.6-1.4 0-0.5-0.2-1-0.6-1.4-0.4-0.3-0.9-0.5-1.4-0.5zm-1.9 16.1h3.6v-10.8h-3.6z"/><text style="transform:matrix(1,0,0,1,1208,-52)" ><tspan x="0" y="0" class="e">Log Into 
</tspan></text><text style="transform:matrix(1,0,0,1,1208,-52)" ><tspan x="0" y="0" class="f">Your Nest
</tspan></text></svg>